<?xml version="1.0" encoding="utf-8"?>
<!-- Generator: Adobe Illustrator 22.0.0, SVG Export Plug-In . SVG Version: 6.00 Build 0)  -->
<svg version="1.1" id="Capa_1" xmlns="http://www.w3.org/2000/svg" xmlns:xlink="http://www.w3.org/1999/xlink" x="0px" y="0px"
	 viewBox="0 0 100 100" style="enable-background:new 0 0 100 100;" xml:space="preserve">
<style type="text/css">
	.st0{fill:#FDC500;}
	.st1{fill:#26203A;}
</style>
<g>
	<g>
		<g>
			<path class="st0" d="M50,86.4c-9.7,0-18.9-3.8-25.7-10.7c-6.9-6.9-10.7-16-10.7-25.7c0-9.7,3.8-18.9,10.7-25.7
				c6.9-6.9,16-10.7,25.7-10.7s18.9,3.8,25.7,10.7c6.9,6.9,10.7,16,10.7,25.7c0,9.7-3.8,18.9-10.7,25.7C68.9,82.6,59.7,86.4,50,86.4
				z M50,18.1c-17.6,0-31.9,14.3-31.9,31.9c0,17.6,14.3,31.9,31.9,31.9S81.9,67.6,81.9,50C81.9,32.4,67.6,18.1,50,18.1z"/>
		</g>
	</g>
	<g>
		<polygon points="46.1,59.8 38.2,51.9 39.8,50.3 46.1,56.7 65.8,37 67.4,38.6 		"/>
	</g>
</g>
</svg>
