<?xml version="1.0" encoding="utf-8"?>
<!-- Generator: Adobe Illustrator 22.0.0, SVG Export Plug-In . SVG Version: 6.00 Build 0)  -->
<svg version="1.1" id="Capa_1" xmlns="http://www.w3.org/2000/svg" xmlns:xlink="http://www.w3.org/1999/xlink" x="0px" y="0px"
	 viewBox="0 0 100 100" style="enable-background:new 0 0 100 100;" xml:space="preserve">
<style type="text/css">
	.st0{fill:#FDC500;}
	.st1{fill:#26203A;}
</style>
<g>
	<g>
		<path class="st0" d="M50,90.3l-1.2-0.8c-0.1,0-6.5-4.3-13.4-9.5C26,72.9,20.1,67.4,18,63.6c-2.2-3.8-3.6-11.4-4.1-22.5
			c-0.4-8.1-0.2-15.3-0.2-15.3l0-1.4L50,9.7l36.3,14.7l0,1.4c0,0.1,0.2,7.2-0.2,15.3c-0.5,11.1-1.9,18.7-4.1,22.5
			c-2.2,3.7-8,9.3-17.5,16.4c-6.9,5.2-13.3,9.5-13.4,9.5L50,90.3z M17.9,27.3c-0.2,8.6,0.2,28,3.8,34.2C25.3,67.7,42.3,80,50,85.1
			c7.7-5.2,24.7-17.4,28.3-23.7c3.6-6.2,3.9-25.6,3.8-34.2L50,14.3L17.9,27.3z"/>
	</g>
	<g>
		<path class="st1" d="M50.2,61.7c-4.6,0-7.9-0.3-10.3-0.9c-2-0.5-3.5-1.3-4.8-2.3c-1.8-1.5-2.8-3.7-2.8-6c0-1.5,0.4-2.9,1.3-3.9
			c0,0,0,0,0,0c0-0.3,0-0.6,0-0.8c0-2.4,0.5-4.8,1.4-7c0.6-1.4,1.4-2.8,2.4-3.9c0.5-1.9,1.7-3.4,3.5-4.3c1-0.5,2.2-0.7,3.3-0.7
			l0.7-0.2l0.7,0.9l0-1.2l0.8-0.2c0.1,0,0.1-0.1,0.2-0.1c2-1.3,4.9-1.4,7,0l0.5,0.3l0,1.2l0.1-0.2l0.5-1l1.2,0.4c0,0,0.1,0,0.1,0
			c1.1-0.1,2.4,0.1,3.4,0.7c1.8,0.9,3.1,2.6,3.5,4.5c0.9,1.2,1.7,2.4,2.3,3.8c0.9,2.2,1.4,4.5,1.4,6.9c0,0.3,0,0.6,0,0.8
			c0,0,0,0,0,0l0,0c0.9,1.1,1.3,2.4,1.3,3.9c0,2.3-1,4.5-2.8,6c-1.2,1-2.8,1.8-4.8,2.3C58,61.4,54.7,61.7,50.2,61.7z M43.8,34.2
			c-0.6,0-1.3,0.1-1.9,0.4c-1.2,0.6-2,1.6-2.2,2.9l-0.1,0.3L39.4,38c-0.9,1.1-1.6,2.3-2.2,3.6c-0.8,1.9-1.2,3.9-1.2,6
			c0,0.4,0,0.8,0,1.2l0,0.5l-0.4,0.4c-0.1,0.1-0.2,0.2-0.2,0.3c-0.5,0.6-0.8,1.4-0.8,2.4c0,1.6,0.7,3.1,2,4.2
			c0.9,0.8,2.2,1.4,3.8,1.8c2.3,0.6,5.4,0.9,9.7,0.9c4.3,0,7.4-0.3,9.7-0.9c1.6-0.4,2.9-1,3.8-1.8c1.3-1.1,2-2.6,2-4.2
			c0-1-0.3-1.8-0.8-2.4c-0.1-0.1-0.2-0.2-0.2-0.3l-0.4-0.4l0-0.6c0-0.4,0-0.8,0-1.2c0-2.1-0.4-4.1-1.2-5.9c-0.5-1.2-1.2-2.4-2.1-3.5
			l-0.2-0.2l-0.1-0.3c-0.2-1.3-1.1-2.4-2.3-3c-0.7-0.4-1.6-0.5-2.4-0.4l-0.2,0l-3.9,6.1l-0.3-7.6c-1.2-0.5-2.7-0.4-3.8,0.3l-0.3,7.3
			L43.8,34.2C43.8,34.2,43.8,34.2,43.8,34.2z"/>
	</g>
</g>
</svg>
