<?xml version="1.0" encoding="utf-8"?>
<!-- Generator: Adobe Illustrator 22.0.0, SVG Export Plug-In . SVG Version: 6.00 Build 0)  -->
<svg version="1.1" id="Capa_1" xmlns="http://www.w3.org/2000/svg" xmlns:xlink="http://www.w3.org/1999/xlink" x="0px" y="0px"
	 viewBox="0 0 100 100" style="enable-background:new 0 0 100 100;" xml:space="preserve">
<style type="text/css">
	.st0{fill:none;stroke:#26203A;stroke-width:4;stroke-linecap:round;stroke-linejoin:round;stroke-miterlimit:10;}
	.st1{fill:#FDC500;}
	.st2{fill:#26203A;}
</style>
<polyline class="st0" points="61,33.7 35,51.7 61,65.4 "/>
<g>
	<g>
		<path class="st1" d="M49.2,93.2c-11.5,0-22.3-4.5-30.4-12.6C10.7,72.5,6.2,61.7,6.2,50.3c0-11.5,4.5-22.3,12.6-30.4
			c8.1-8.1,18.9-12.6,30.4-12.6s22.3,4.5,30.4,12.6c8.1,8.1,12.6,18.9,12.6,30.4c0,11.5-4.5,22.3-12.6,30.4
			C71.4,88.7,60.6,93.2,49.2,93.2z M49.2,12.7c-20.7,0-37.6,16.9-37.6,37.6c0,20.7,16.9,37.6,37.6,37.6S86.8,71,86.8,50.3
			C86.8,29.5,69.9,12.7,49.2,12.7z"/>
	</g>
</g>
</svg>
