<?xml version="1.0" encoding="utf-8"?>
<!-- Generator: Adobe Illustrator 22.0.0, SVG Export Plug-In . SVG Version: 6.00 Build 0)  -->
<svg version="1.1" id="Capa_1" xmlns="http://www.w3.org/2000/svg" xmlns:xlink="http://www.w3.org/1999/xlink" x="0px" y="0px"
	 viewBox="0 0 100 100" style="enable-background:new 0 0 100 100;" xml:space="preserve">
<style type="text/css">
	.st0{fill:#FDC500;}
	.st1{fill:#26203A;}
</style>
<g>
	<g>
		<g>
			<path class="st0" d="M50,86.4c-9.7,0-18.9-3.8-25.7-10.7c-6.9-6.9-10.7-16-10.7-25.7c0-9.7,3.8-18.9,10.7-25.7
				c6.9-6.9,16-10.7,25.7-10.7c9.7,0,18.9,3.8,25.7,10.7c6.9,6.9,10.7,16,10.7,25.7c0,9.7-3.8,18.9-10.7,25.7
				C68.9,82.6,59.7,86.4,50,86.4z M50,18.1c-17.6,0-31.9,14.3-31.9,31.9c0,17.6,14.3,31.9,31.9,31.9c17.6,0,31.9-14.3,31.9-31.9
				C81.9,32.4,67.6,18.1,50,18.1z"/>
		</g>
	</g>
	<g>
		<path d="M36.3,65.8l-1.6-1.6l3.9-3.9l0.7,0.4c0,0,2.8,1.4,6.5,1.8c4.9,0.5,9-0.9,12.4-4.3c7.1-7.1,5.8-19.6,5.2-23.1
			c-2.1,0.1-7.4,0.6-12.6,2.3c-8.6,2.8-13,7.4-13,13.6c0,2.3,0.3,5.1,1.9,5.7c1.4,0.5,4.1-0.7,7.3-3.3c2.7-2.2,4.9-4.6,4.9-4.7
			l1.7,1.5c-0.1,0.1-2.3,2.6-5.1,4.9c-4,3.3-7.2,4.5-9.5,3.7c-1.1-0.4-1.9-1.3-2.5-2.6c-0.5-1.3-0.8-3-0.8-5.1
			c0-7.2,5-12.7,14.5-15.7c7-2.2,13.8-2.4,14.1-2.4l0.9,0l0.2,0.9c0,0.2,0.9,4.3,0.6,9.5c-0.3,7-2.5,12.7-6.3,16.5
			c-3.3,3.3-7.5,5-12.1,5c-0.7,0-1.4,0-2.1-0.1c-2.9-0.3-5.3-1.2-6.4-1.7L36.3,65.8z"/>
	</g>
</g>
</svg>
