<?xml version="1.0" encoding="utf-8"?>
<!-- Generator: Adobe Illustrator 22.0.0, SVG Export Plug-In . SVG Version: 6.00 Build 0)  -->
<svg version="1.1" id="Capa_1" xmlns="http://www.w3.org/2000/svg" xmlns:xlink="http://www.w3.org/1999/xlink" x="0px" y="0px"
	 viewBox="0 0 100 100" style="enable-background:new 0 0 100 100;" xml:space="preserve">
<style type="text/css">
	.st0{fill:none;stroke:#26203A;stroke-width:4;stroke-linecap:round;stroke-linejoin:round;stroke-miterlimit:10;}
	.st1{fill:#FDC500;}
	.st2{fill:#26203A;}
</style>
<polyline class="st0" points="40.5,65.9 66.5,47.9 40.5,34.2 "/>
<g>
	<g>
		<path class="st1" d="M50,93c-11.5,0-22.3-4.5-30.4-12.6C11.5,72.3,7,61.5,7,50c0-11.5,4.5-22.3,12.6-30.4C27.7,11.5,38.5,7,50,7
			s22.3,4.5,30.4,12.6C88.5,27.7,93,38.5,93,50c0,11.5-4.5,22.3-12.6,30.4C72.3,88.5,61.5,93,50,93z M50,12.4
			c-20.7,0-37.6,16.9-37.6,37.6c0,20.7,16.9,37.6,37.6,37.6S87.6,70.7,87.6,50C87.6,29.3,70.7,12.4,50,12.4z"/>
	</g>
</g>
</svg>
