<?xml version="1.0" encoding="UTF-8"?>
<!DOCTYPE svg PUBLIC "-//W3C//DTD SVG 1.1//EN" "http://www.w3.org/Graphics/SVG/1.1/DTD/svg11.dtd">
<!-- Creator: CorelDRAW X8 -->
<svg xmlns="http://www.w3.org/2000/svg" xml:space="preserve" width="161mm" height="41mm" version="1.1" style="shape-rendering:geometricPrecision; text-rendering:geometricPrecision; image-rendering:optimizeQuality; fill-rule:evenodd; clip-rule:evenodd"
viewBox="0 0 16100 4100"
 xmlns:xlink="http://www.w3.org/1999/xlink">
 <defs>
  <style type="text/css">
   <![CDATA[
    .str0 {stroke:#020202;stroke-width:94.83}
    .fil1 {fill:black}
    .fil2 {fill:#020202}
    .fil0 {fill:#FEF000}
   ]]>
  </style>
 </defs>
 <g id="Capa_x0020_1">
  <metadata id="CorelCorpID_0Corel-Layer"/>
  <g id="Capa_1">
  </g>
  <g id="Capa_2">
   <g>
    <path class="fil0 str0" d="M15675 863l-15249 0c-207,0 -376,169 -376,376l0 1668c0,207 169,376 376,376l15248 0c207,0 376,-169 376,-376l0 -1668c0,-207 -167,-376 -375,-376z"/>
    <circle class="fil0 str0" cx="10995" cy="2050" r="1996"/>
    <g>
     <g>
      <g>
       <polygon class="fil1" points="712,1743 951,1743 812,2643 1037,2643 1177,1743 1408,1743 1444,1500 749,1500 "/>
       <polygon class="fil1" points="1163,2643 1378,2643 1420,2377 1205,2377 "/>
       <path class="fil1" d="M2102 2047c-28,-26 -80,-63 -159,-109 -69,-42 -96,-65 -109,-78 -13,-14 -20,-34 -20,-57 0,-28 8,-48 22,-62 14,-13 40,-21 75,-21 49,0 106,15 114,132l1 31 218 -13 -1 -30c-6,-111 -38,-198 -97,-261 -58,-63 -138,-96 -235,-96 -97,0 -175,33 -232,97 -55,63 -84,148 -84,250 0,51 8,97 23,137 15,42 37,75 66,105 28,27 80,64 160,110 75,45 96,66 104,75 11,16 15,33 15,54 0,31 -9,55 -29,74 -20,18 -50,27 -92,27 -34,0 -58,-4 -77,-15 -17,-9 -29,-23 -35,-38 -6,-14 -12,-43 -15,-109l-2 -33 -215 16 0 27c-1,68 8,132 28,192 20,63 60,114 115,152 55,37 123,56 201,56 103,0 189,-36 252,-108 63,-70 95,-161 95,-270 0,-49 -7,-94 -21,-134 -17,-38 -39,-73 -66,-101z"/>
       <polygon class="fil1" points="2215,2643 2430,2643 2472,2377 2257,2377 "/>
       <polygon class="fil1" points="3236,1500 3011,1500 2834,2643 3467,2643 3505,2400 3098,2400 "/>
       <path class="fil1" d="M4305 1615c-67,-89 -156,-133 -261,-133 -100,0 -189,35 -264,106 -74,69 -130,170 -167,302 -29,102 -43,201 -43,297 0,141 35,258 106,350 61,81 146,123 250,123 86,0 166,-28 236,-83 70,-54 129,-138 176,-251 46,-110 69,-231 69,-362 -2,-144 -36,-263 -102,-349zm-167 592c-28,75 -60,130 -95,161 -34,31 -68,44 -100,44 -40,0 -74,-18 -103,-58 -31,-41 -46,-100 -46,-172 0,-89 14,-172 41,-247 27,-74 59,-128 96,-160 35,-31 69,-46 102,-46 42,0 74,17 100,54 33,44 49,107 49,187 -3,80 -16,160 -44,237z"/>
       <path class="fil1" d="M5155 2064c46,-63 69,-146 69,-249 0,-69 -11,-129 -34,-175 -23,-48 -54,-84 -91,-106 -37,-21 -90,-32 -163,-32l-380 0 -175 1141 225 0 69 -447 42 0c35,0 49,4 52,8 6,3 15,10 28,30 17,26 35,72 55,140 40,134 63,217 71,246l6 24 241 0 -11 -40c-43,-146 -81,-262 -117,-347 -13,-32 -27,-60 -41,-84 63,-22 115,-57 154,-109zm-180 -158c-16,26 -35,43 -57,50 -17,6 -58,16 -155,16l-51 0 36 -229 153 0c58,0 72,9 74,11 17,12 24,33 24,64 -1,32 -9,60 -24,88z"/>
       <path class="fil1" d="M5827 1500l-98 618c-15,99 -31,168 -45,204 -12,32 -29,55 -49,70 -20,14 -44,22 -74,22 -32,0 -56,-9 -73,-29 -19,-22 -28,-49 -28,-88 0,-9 2,-20 2,-32l21 -141 95 -622 -225 0 -91 594c-15,103 -23,169 -23,204 0,109 28,198 83,263 57,66 135,100 232,100 83,0 153,-23 209,-66 55,-43 99,-109 130,-197 22,-60 42,-147 60,-272l100 -625 -226 0 0 -3z"/>
       <path class="fil1" d="M6616 2047c-27,-26 -79,-63 -158,-109 -69,-42 -96,-65 -109,-78 -14,-14 -20,-34 -20,-57 0,-28 8,-48 22,-62 14,-13 40,-21 75,-21 49,0 106,15 114,132l1 31 218 -13 -1 -30c-6,-111 -39,-198 -97,-261 -58,-63 -138,-96 -235,-96 -97,0 -175,33 -232,97 -55,63 -84,148 -84,250 0,51 7,97 23,137 15,42 37,75 66,105 27,27 80,64 159,110 76,45 97,66 105,75 11,16 15,33 15,54 0,31 -9,55 -29,74 -20,18 -51,27 -92,27 -34,0 -58,-4 -77,-15 -17,-9 -29,-23 -35,-38 -6,-14 -12,-43 -16,-109l-1 -33 -215 16 0 27c-2,68 8,132 28,192 20,63 59,114 115,152 55,37 123,56 199,56 105,0 189,-36 252,-108 63,-70 95,-161 95,-270 0,-49 -7,-94 -21,-134 -14,-38 -37,-72 -65,-101z"/>
       <path class="fil1" d="M7168 1720c49,0 106,15 113,132l2 31 218 -13 -2 -30c-6,-111 -38,-198 -96,-261 -59,-63 -138,-96 -235,-96 -97,0 -175,33 -232,97 -55,63 -85,148 -85,250 0,51 8,97 23,137 16,42 37,75 66,105 28,27 80,64 160,110 75,45 97,66 105,75 10,16 15,33 15,54 0,31 -9,55 -29,74 -20,18 -51,27 -92,27 -34,0 -59,-4 -77,-15 -17,-9 -29,-23 -35,-38 -7,-14 -13,-43 -16,-109l-1 -33 -215 16 0 27c-2,68 7,132 27,192 20,63 60,114 116,152 55,37 122,56 201,56 103,0 189,-36 252,-108 62,-70 95,-161 95,-270 0,-49 -8,-94 -22,-134 -15,-40 -37,-73 -66,-103 -27,-26 -80,-63 -158,-109 -69,-41 -97,-64 -109,-78 -14,-14 -20,-34 -20,-57 0,-27 8,-47 22,-61 13,-12 39,-20 75,-20z"/>
       <path class="fil1" d="M8264 1615c-67,-89 -155,-133 -261,-133 -100,0 -189,35 -264,106 -74,69 -130,170 -167,302 -30,102 -43,201 -43,297 0,141 35,258 106,350 61,81 145,123 250,123 86,0 166,-28 236,-83 70,-54 129,-138 175,-251 47,-110 70,-231 70,-362 -2,-144 -36,-263 -102,-349zm-169 592c-27,75 -60,130 -95,161 -34,31 -67,44 -100,44 -40,0 -73,-18 -103,-58 -30,-41 -46,-100 -46,-172 0,-89 14,-172 42,-247 26,-74 58,-128 95,-160 35,-31 69,-46 103,-46 41,0 74,17 100,54 32,44 49,107 49,187 -2,80 -16,160 -45,237z"/>
      </g>
     </g>
     <g>
      <path class="fil1" d="M14077 2236l-240 -48 -8 34c-16,69 -39,120 -72,152 -29,31 -60,45 -92,45 -32,0 -60,-19 -83,-54 -27,-40 -41,-102 -41,-183 0,-89 12,-172 38,-247 25,-72 54,-123 88,-152 32,-28 63,-42 96,-42 31,0 54,10 73,30 13,15 32,47 43,121l4 35 229 -31 -3 -35c-11,-121 -46,-216 -108,-284 -63,-69 -142,-103 -236,-103 -83,0 -160,28 -230,83 -70,54 -126,135 -169,244 -43,106 -65,231 -65,370 0,165 31,291 92,375 63,88 151,134 260,134 95,0 181,-36 253,-105 71,-67 123,-169 158,-301l13 -38z"/>
      <polygon class="fil1" points="14098,2382 14055,2661 14284,2661 14327,2382 "/>
      <polygon class="fil1" points="15244,2382 15201,2661 15430,2661 15473,2382 "/>
      <path class="fil1" d="M15021 1494l-239 0 -489 1167 251 0 98 -241 262 0 27 241 230 0 -140 -1167zm-276 670l103 -255 27 255 -130 0z"/>
     </g>
     <g>
      <polygon class="fil2" points="11276,1334 10697,1334 10623,1513 11351,1513 "/>
      <polygon class="fil2" points="11203,1013 10770,1013 10714,1193 11259,1193 "/>
      <rect class="fil2" x="10714" y="668" width="524" height="170"/>
      <polygon class="fil2" points="11142,461 11035,461 11035,419 10952,419 10952,461 10835,461 10835,531 11142,531 "/>
      <path class="fil2" d="M12610 1812l0 -100 -284 0 2 -21 -733 -30 0 -3 -720 -29 -2 28 -118 0 0 69 -78 0 0 -69 0 0c0,-23 -19,-42 -42,-42l-694 0 0 151 -293 0c-60,0 -108,49 -108,107l0 77 -118 16 -95 109 0 267 -26 0 0 104 104 0c0,0 0,45 0,100 0,55 66,151 66,151l166 0 0 -251 58 0 275 0 59 0 30 0 0 94 -422 0 0 133 473 0c3,5 6,10 8,13l-14 9 20 0 166 0 27 0 148 0 20 0 0 0c32,-5 58,-71 58,-149 0,-26 -3,-49 -8,-71l74 -60 0 143 237 0 104 0 137 -1 0 -62 328 2 0 52 1140 -18 0 -154 66 0 0 -183 66 0 0 -382 -77 0zm-2973 442l0 88 -178 0 0 -258 178 0 0 170zm332 88l0 52 -275 0 0 -52 0 -88 275 0 0 88zm574 -45l-66 54 0 -9 -38 0 0 -261 -63 0 0 -85 -212 0 0 85 149 0 0 261 -284 0 0 -88 0 -258 -59 0 -275 0 -21 0 0 -96 402 0 0 -151 363 0 0 200 106 0 0 348 -2 0zm275 -89l-104 0 0 -60 104 0 0 60zm95 -118l-133 0 0 -126 133 0 0 126zm39 23l0 -347 301 12 0 343 0 0 -301 -8zm465 252l-329 -2 0 -50 329 0 0 52zm134 0l-93 0 0 -54 93 0 0 54zm133 14l-71 0 0 -13 -21 0 0 -53 92 0 0 66zm267 -240l0 0 -239 -6 -100 -336 339 13 0 329zm607 15l0 0 -140 -3 -90 -305 230 0 0 308z"/>
     </g>
    </g>
   </g>
  </g>
 </g>
</svg>
